<?xml version="1.0" encoding="UTF-8" standalone="no"?>
<svg
   width="512"
   height="512"
   viewBox="0 0 66.771268 66.764799"
   preserveAspectRatio="xMinYMin meet"
   version="1.1"
   id="svg8"
   sodipodi:docname="logo-512x512.svg"
   inkscape:version="1.1.2 (0a00cf5339, 2022-02-04)"
   xmlns:inkscape="http://www.inkscape.org/namespaces/inkscape"
   xmlns:sodipodi="http://sodipodi.sourceforge.net/DTD/sodipodi-0.dtd"
   xmlns="http://www.w3.org/2000/svg"
   xmlns:svg="http://www.w3.org/2000/svg">
  <defs
     id="defs12" />
  <sodipodi:namedview
     id="namedview10"
     pagecolor="#ffffff"
     bordercolor="#666666"
     borderopacity="1.0"
     inkscape:pageshadow="2"
     inkscape:pageopacity="0.0"
     inkscape:pagecheckerboard="0"
     showgrid="false"
     inkscape:snap-page="false"
     fit-margin-top="0"
     fit-margin-left="0"
     fit-margin-right="0"
     fit-margin-bottom="0"
     inkscape:zoom="0.71631415"
     inkscape:cx="-156.35598"
     inkscape:cy="54.445385"
     inkscape:window-width="1920"
     inkscape:window-height="988"
     inkscape:window-x="0"
     inkscape:window-y="24"
     inkscape:window-maximized="1"
     inkscape:current-layer="svg8" />
  <style
     type="text/css"
     id="style108"><![CDATA[
	.st0{fill:#000000;}
]]></style>
  <g
     id="g18"
     transform="matrix(21.333341,0,0,21.333341,-1.2131296e-5,-1.8973315e-5)">
    <g
       fill="#2ba977"
       id="g6"
       transform="matrix(0.0045649,0,0,0.0045649,0.79798359,0.64618176)">
      <path
         d="m 114.784,0 h 53.278 v 244.191 c -27.29,5.162 -47.38,7.193 -69.117,7.193 C 33.873,251.316 0,222.245 0,166.412 0,112.617 35.93,77.704 91.608,77.704 c 8.64,0 15.222,0.68 23.176,2.717 z m 1.867,124.427 c -6.24,-2.038 -11.382,-2.717 -17.965,-2.717 -26.947,0 -42.512,16.437 -42.512,45.243 0,28.046 14.88,43.532 42.17,43.532 5.896,0 10.696,-0.332 18.307,-1.351 z"
         id="path2" />
      <path
         d="m 255.187,84.26 v 122.263 c 0,42.105 -3.154,62.353 -12.411,79.81 -8.64,16.783 -20.022,27.366 -43.541,39.055 l -49.438,-23.297 c 23.519,-10.93 34.901,-20.588 42.17,-35.327 7.61,-15.072 10.01,-32.529 10.01,-78.445 V 84.261 h 53.21 z M 196.608,0 h 53.278 v 54.135 h -53.278 z"
         id="path4" />
    </g>
    <g
       id="g112"
       transform="matrix(0.00611309,0,0,0.00611309,-2.496545e-6,9.3311353e-7)">
      <path
         class="st0"
         d="m 422.969,193.281 c 2.313,-7.922 3.594,-16.313 3.594,-24.969 0,-42.469 -29.375,-78.063 -68.875,-87.844 C 346.813,34.406 305.438,0 256,0 206.562,0 165.187,34.406 154.25,80.469 c -39.438,9.781 -68.813,45.375 -68.813,87.844 0,8.656 1.281,17.047 3.594,24.969 -24.718,19.187 -40.625,49.031 -40.625,82.718 0,57.75 46.781,104.563 104.563,104.563 14.625,0 28.563,-2.969 41.188,-8.406 1.922,1.594 3.844,3.125 5.844,4.563 V 512 h 112 V 376.641 c 2,-1.438 3.922,-2.891 5.75,-4.484 12.719,5.438 26.656,8.406 41.281,8.406 57.781,0 104.563,-46.813 104.563,-104.563 -0.001,-33.687 -15.907,-63.531 -40.626,-82.719 z M 280,480 h -48 v -88.156 c 7.688,2 15.688,3.031 24,3.031 8.312,0 16.313,-1.031 24,-3.031 z m 79.031,-131.437 c -9.906,0 -19.5,-1.922 -28.625,-5.844 l -18.156,-7.844 -0.25,0.25 -14.875,12.625 c -5.203,4.328 -10.969,7.844 -17.125,10.328 -7.594,3.125 -15.688,4.797 -24,4.797 -8.312,0 -16.406,-1.672 -24,-4.797 -6.156,-2.484 -11.922,-6 -17.125,-10.328 L 200,335.125 l -0.25,-0.25 -18.156,7.844 c -9.125,3.922 -18.719,5.844 -28.625,5.844 -40,0 -72.563,-32.563 -72.563,-72.563 0,-22.563 10.234,-43.438 28.234,-57.359 l 17.109,-13.281 -6,-20.891 c -1.5,-5.438 -2.313,-10.875 -2.313,-16.156 0,-26.953 18.313,-50.313 44.484,-56.719 l 18.953,-4.719 4.563,-19.031 C 193.188,54.969 222.25,32 256,32 c 33.75,0 62.813,22.969 70.563,55.844 l 4.469,19.031 19.047,4.719 c 26.172,6.406 44.484,29.766 44.484,56.719 0,5.281 -0.813,10.719 -2.313,16.156 l -6,20.891 17.109,13.281 c 18,13.922 28.234,34.797 28.234,57.359 10e-4,40 -32.562,72.563 -72.562,72.563 z"
         id="path110" />
    </g>
    <path
       style="fill:#2ba977;fill-opacity:1;stroke-width:0.0308483"
       d="M 9.3778887,20.812353 V 17.64014 L 9.2563043,17.54243 c -0.066871,-0.05374 -0.1368567,-0.09771 -0.155523,-0.09771 -0.018666,0 -0.1735986,0.04861 -0.3442944,0.108028 -0.5801094,0.201922 -0.8552609,0.244363 -1.584253,0.244363 -0.5533077,0 -0.6934828,-0.0099 -0.960856,-0.06817 C 4.9069607,17.444897 3.824849,16.713009 3.0981908,15.62334 1.7600203,13.616669 2.1191223,10.891608 3.9329707,9.2885769 4.0688077,9.1685276 4.1780259,9.0562212 4.1756778,9.0390073 4.1733298,9.0217933 4.1400864,8.8619506 4.1018038,8.6838015 4.0055305,8.2357923 4.0043458,7.5415778 4.0990825,7.089301 4.2718265,6.2646147 4.6267782,5.5837239 5.1923505,4.9921247 5.6911177,4.470405 6.2518185,4.1106605 6.9108018,3.8895694 7.1238971,3.8180753 7.2407255,3.7625592 7.254755,3.7261251 7.2664404,3.6957787 7.3143694,3.5460142 7.3612641,3.393315 7.4778044,3.0138331 7.8226969,2.3408832 8.0727145,2.0051407 8.7942453,1.0362155 9.8545862,0.36473981 11.074546,0.10418867 c 0.27266,-0.05823301 0.419081,-0.06917803 0.92545,-0.06917803 0.506369,0 0.652789,0.01094502 0.925449,0.06917803 1.312215,0.28025439 2.389765,0.99673543 3.115592,2.07160863 0.250297,0.3706648 0.421496,0.7208512 0.584471,1.1955309 l 0.140729,0.4098899 0.32283,0.1083103 c 0.65911,0.2211334 1.219774,0.5808423 1.718574,1.1025963 0.580644,0.6073648 0.960185,1.3536772 1.108706,2.1801092 0.07824,0.4353361 0.07013,1.0968459 -0.01852,1.5115676 -0.03808,0.1781491 -0.07116,0.3379918 -0.07351,0.3552058 -0.0023,0.017214 0.110055,0.1323269 0.249785,0.2558059 1.623816,1.4349688 2.098372,3.8125438 1.150159,5.7624188 -0.668754,1.375206 -1.908275,2.339115 -3.435644,2.671715 -0.267373,0.05822 -0.407548,0.06817 -0.960856,0.06817 -0.728992,0 -1.004143,-0.04244 -1.584253,-0.244363 -0.170695,-0.05942 -0.325628,-0.108028 -0.344294,-0.108028 -0.01867,0 -0.08865,0.04397 -0.155523,0.09771 l -0.121584,0.09771 v 3.172213 3.172214 H 11.999996 9.3778887 Z M 13.141383,20.42597 v -2.077878 l -0.269922,0.06136 c -0.389132,0.08846 -1.353799,0.08846 -1.74293,0 l -0.269923,-0.06136 v 2.077878 2.077878 h 1.141388 1.141387 z m -0.56356,-3.461848 c 0.324047,-0.06693 0.688463,-0.204448 0.943834,-0.356161 0.117785,-0.06997 0.418592,-0.298614 0.66846,-0.508086 l 0.454307,-0.380859 0.498236,0.21529 c 0.27403,0.11841 0.616386,0.249529 0.76079,0.291375 0.719161,0.208405 1.572756,0.151625 2.273211,-0.151211 1.065091,-0.460483 1.818942,-1.416253 2.017305,-2.557641 0.07136,-0.410619 0.04509,-1.046797 -0.05972,-1.446061 C 19.914859,11.235014 19.496047,10.668428 18.5784,9.9659551 18.336626,9.7808738 18.138811,9.6181823 18.138811,9.6044187 c 0,-0.013764 0.06832,-0.2659298 0.151823,-0.560369 0.0835,-0.2944392 0.168705,-0.6507961 0.189337,-0.7919047 C 18.552442,7.756518 18.464422,7.1744337 18.247896,6.717402 18.105418,6.4166664 17.983596,6.2435447 17.724361,5.9734001 17.304789,5.5361718 16.946824,5.3514721 16.104463,5.1375804 L 15.532614,4.9923767 15.406908,4.4704806 C 15.251585,3.825619 15.203184,3.6783658 15.037407,3.3463157 14.608988,2.4881953 13.839812,1.8654633 12.877391,1.597548 12.593088,1.518405 12.529013,1.51217 11.999996,1.51217 c -0.529017,0 -0.593092,0.00624 -0.877395,0.085378 C 10.171138,1.8624128 9.3933835,2.4877711 8.9712486,3.3273557 8.7990977,3.6697468 8.7745715,3.7428964 8.6084659,4.4093562 L 8.4628711,4.9935209 7.8932748,5.1381526 C 7.2767076,5.2947109 6.9532457,5.4258468 6.6527396,5.641082 6.4366953,5.7958224 6.1033459,6.1335998 5.9636462,6.3393294 5.5933038,6.8847156 5.4256944,7.6070481 5.5199342,8.251558 c 0.02068,0.1414315 0.1059204,0.4980525 0.1894231,0.7924917 0.083503,0.2944392 0.1518231,0.5467436 0.1518231,0.5606762 0,0.013933 -0.2047557,0.1827979 -0.4550127,0.3752562 -0.7345321,0.5648869 -1.0625832,0.9394109 -1.3384159,1.5280229 -0.067877,0.144845 -0.1599795,0.398088 -0.2046726,0.562763 -0.074282,0.273698 -0.081187,0.348413 -0.080405,0.870101 9.332e-4,0.622844 0.026568,0.769498 0.2239875,1.281425 0.5280075,1.369169 2.0032104,2.261833 3.4919178,2.113004 0.4318055,-0.04317 0.7434642,-0.135123 1.3580833,-0.400703 l 0.497568,-0.215001 0.4542918,0.380164 c 0.2498604,0.209091 0.5509684,0.437599 0.6691294,0.507797 0.246735,0.146583 0.617935,0.289005 0.92471,0.354793 0.288212,0.06181 0.880496,0.0627 1.175461,0.0018 z"
       id="path3431"
       transform="scale(0.13041263)" />
  </g>
</svg>
