<?xml version="1.0" encoding="UTF-8" standalone="no"?>
<!-- Uploaded to: SVG Repo, www.svgrepo.com, Generator: SVG Repo Mixer Tools -->

<svg
   width="24"
   height="24"
   viewBox="0 0 0.72 0.72"
   fill="none"
   version="1.1"
   id="svg12"
   sodipodi:docname="models.svg"
   inkscape:version="1.1.2 (0a00cf5339, 2022-02-04)"
   xmlns:inkscape="http://www.inkscape.org/namespaces/inkscape"
   xmlns:sodipodi="http://sodipodi.sourceforge.net/DTD/sodipodi-0.dtd"
   xmlns="http://www.w3.org/2000/svg"
   xmlns:svg="http://www.w3.org/2000/svg">
  <defs
     id="defs16" />
  <sodipodi:namedview
     id="namedview14"
     pagecolor="#ffffff"
     bordercolor="#666666"
     borderopacity="1.0"
     inkscape:pageshadow="2"
     inkscape:pageopacity="0.0"
     inkscape:pagecheckerboard="0"
     showgrid="false"
     inkscape:zoom="1.0125"
     inkscape:cx="400"
     inkscape:cy="320.98765"
     inkscape:window-width="1920"
     inkscape:window-height="988"
     inkscape:window-x="0"
     inkscape:window-y="24"
     inkscape:window-maximized="1"
     inkscape:current-layer="svg12" />
  <g
     id="g31"
     transform="matrix(0.03348837,0,0,0.03348837,-0.04186044,-0.04186044)">
    <path
       d="M 4,18 V 6"
       stroke="#1c274c"
       stroke-width="1.5"
       stroke-linecap="round"
       id="path2" />
    <path
       d="M 20,6 V 18"
       stroke="#1c274c"
       stroke-width="1.5"
       stroke-linecap="round"
       id="path4" />
    <path
       d="M 12,10 C 16.4183,10 20,8.20914 20,6 20,3.79086 16.4183,2 12,2 7.58172,2 4,3.79086 4,6 c 0,2.20914 3.58172,4 8,4 z"
       stroke="#1c274c"
       stroke-width="1.5"
       id="path6" />
    <path
       d="m 20,12 c 0,2.2091 -3.5817,4 -8,4 -4.41828,0 -8,-1.7909 -8,-4"
       stroke="#1c274c"
       stroke-width="1.5"
       id="path8" />
    <path
       d="m 20,18 c 0,2.2091 -3.5817,4 -8,4 -4.41828,0 -8,-1.7909 -8,-4"
       stroke="#1c274c"
       stroke-width="1.5"
       id="path10" />
  </g>
</svg>
